<svg width="400" height="130" viewBox="0 0 400 130" version="1.1" xmlns="http://www.w3.org/2000/svg" xmlns:xlink="http://www.w3.org/1999/xlink">
<title>krypto-white</title>
<desc>Created using Figma</desc>
<g id="Canvas" transform="translate(-890 -120)">
<g id="krypto-white">
<use xlink:href="#path0_fill" transform="translate(890 120)" fill="#FFFFFF"/>
</g>
</g>
<defs>
<path id="path0_fill" fill-rule="evenodd" d="M 47.7212 101.833L 28.8717 76.0193L 27.2171 73.7533L 19.4085 79.8373L 19.4085 101.833L 0 101.833L 0 8.66667L 19.4085 0L 19.4085 57.9973L 40.6533 35.0239L 43.356 32.1013L 67.4601 32.1013L 41.3039 61.7413L 43.5631 64.8195L 70.7297 101.833L 58.5907 101.833L 47.7212 101.833ZM 119.177 33.956L 119.177 53.3C 116.516 51.74 113.073 50.96 109.473 50.96C 102.899 50.96 97.5772 54.392 96.1685 60.788L 96.1685 101.833L 76.76 101.833L 76.76 32.1013L 96.1685 32.1013L 96.1685 41.132C 99.1424 36.14 104.934 32.708 111.82 32.708C 115.107 32.708 118.081 33.332 119.177 33.956ZM 162.333 130L 144.824 125.667L 153.411 102.145L 126.646 32.1013L 147.151 32.1013L 163.272 78.4333L 179.237 32.1013L 198.802 32.1013L 162.333 130ZM 226.53 96.0613L 226.53 123.5L 207.115 130L 207.115 32.1013L 226.53 32.1013L 226.53 37.8733C 229.661 34.1293 236.55 30.5413 244.065 30.5413C 264.42 30.5413 276.006 47.3893 276.006 67.0453C 276.006 86.7013 264.42 103.393 244.065 103.393C 236.55 103.393 229.661 99.8053 226.53 96.0613ZM 226.524 55.5013L 226.524 78.4333C 228.871 83.2693 234.037 86.5453 239.671 86.5453C 250.158 86.5453 256.419 78.1213 256.419 67.0453C 256.419 55.8133 250.158 47.3893 239.671 47.3893C 233.88 47.3893 228.871 50.8213 226.524 55.5013ZM 286.053 79.365L 286.053 48.4597L 286.053 32.8597L 286.053 8.66667L 305.305 0L 305.305 32.8597L 324.992 32.8597L 324.992 48.4597L 305.305 48.4597L 305.305 79.0357C 305.305 84.4957 308.279 86.9917 313.288 86.9917C 316.262 86.9917 319.549 86.0557 321.74 84.6517L 321.74 101.812C 319.079 103.216 314.384 103.996 309.218 103.996C 294.975 103.996 286.053 94.809 286.053 79.365ZM 400 67.0453C 400 88.4173 386.07 103.393 365.722 103.393C 345.374 103.393 331.444 88.4173 331.444 67.0453C 331.444 45.5173 345.374 30.5413 365.722 30.5413C 386.07 30.5413 400 45.5173 400 67.0453ZM 380.748 67.0453C 380.748 55.3453 375.426 46.9213 365.722 46.9213C 356.018 46.9213 350.696 55.3453 350.696 67.0453C 350.696 78.5893 356.018 87.0133 365.722 87.0133C 375.426 87.0133 380.748 78.5893 380.748 67.0453Z"/>
</defs>
</svg>
